<svg width="82" height="108" viewBox="0 0 82 108" fill="none" xmlns="http://www.w3.org/2000/svg">
<path stroke="#FFFFFF" stroke-width="3" d="M40.9929 0L82 23.4713V71.9273L61.1367 84.0985L42.5 73.6289V95.2896L21.6367 107.461L0 95.3059V70.2159L20.1226 58.1579V12.1752L40.9929 0ZM43.9668 71.0119L59.25 79.5976V61.681L43.9668 71.0119ZM62.25 79.9758L79 70.2042V25.2109L62.25 15.6237V36.3991H59.25V15.6237L40.9929 26.0735L23.1226 15.6484V59.8576L4.4881 71.0239L22.3573 81.0623L20.888 83.6779L3 73.6289V93.5502L21.6086 104.004L39.5 93.5666V70.2241L62.25 56.3345V79.9758ZM24.5994 13.0368L41.0071 22.6087L57.7304 13.0368L41.0071 3.46484L24.5994 13.0368Z"/>
</svg>